<svg width="147" height="42" viewBox="0 0 147 42" fill="none" xmlns="http://www.w3.org/2000/svg">
<path d="M13.91 14.39C14.42 14.02 5.41999 3.30001 5.70999 3.10001C5.89999 2.96001 13.77 12.7 13.77 12.7C14.23 12.37 6.33999 3.19001 6.67999 2.94001C7.21999 2.55001 13.51 11.29 13.69 11.16C14.16 10.82 7.46999 2.89001 7.60999 2.79001C8.06999 2.46001 13.25 9.72001 13.63 9.44001C14.08 9.11001 8.36999 2.84001 8.66999 2.62001C9.01999 2.37001 13.37 8.02001 13.59 7.86001C13.81 7.70001 9.56999 2.52001 9.65999 2.45001C9.87999 2.29001 13.57 6.42001 13.57 6.42001C13.74 6.29001 10.29 2.51001 10.58 2.30001C10.74 2.18001 13.43 4.85001 13.56 4.75001C13.65 4.69001 11.63 2.14001 11.65 2.12001C11.76 2.04001 13.44 3.41001 13.56 3.32001L12.58 1.97001C12.58 1.97001 13.54 1.92001 13.58 1.89001C13.56 1.87001 13.54 1.84001 13.53 1.82001" stroke="#E2BD63" stroke-width="0.85" stroke-linecap="round" stroke-linejoin="round"/>
<path d="M8.44999 29.84C8.85999 29.54 2.99999 22.92 3.27999 22.72C3.58999 22.49 8.44999 28.43 8.44999 28.43L3.80999 22.05C4.11999 21.83 8.65999 27.43 8.89999 27.26C9.31999 26.95 4.51999 21.23 4.51999 21.23C4.75999 21.06 9.39999 26.39 9.39999 26.39C9.58999 26.25 5.16999 20.57 5.16999 20.57C5.46999 20.35 9.73999 25.75 9.99999 25.57C10.19 25.43 5.69999 20.05 5.88999 19.91C6.11999 19.74 10.63 24.84 10.63 24.84C10.85 24.68 6.31999 19.53 6.60999 19.31C6.60999 19.31 10.98 24.4 11.29 24.17C11.35 24.13 6.80999 18.53 7.05999 18.35C7.05999 18.35 12 23.52 12.05 23.48C12.35 23.26 6.13999 16.38 6.62999 16.02C6.62999 16.02 12.37 23.19 12.75 22.91L6.29999 14.02C6.57999 13.82 13.1 22.64 13.46 22.38C13.71 22.2 5.43999 12.5 5.98999 12.1L14.15 21.88C14.15 21.88 5.57999 10.36 5.69999 10.27L14.89 21.39C15.62 20.86 4.70999 8.92 5.43999 8.39C5.66999 8.22 14.94 21.42 15.68 20.88C15.68 20.88 4.67999 6.87 5.21999 6.48C5.21999 6.48 16.04 20.7 16.5 20.37C16.71 20.22 5.06999 4.64 5.06999 4.64C5.06999 4.64 16.31 20.63 17.32 19.89C17.66 19.64 4.46999 3.69 5.17999 3.18C6.26999 2.39 17.56 19.84 18.12 19.43C18.25 19.34 14.31 14.19 14.31 14.19C14.52 14.04 18.91 18.99 18.91 18.99C18.94 18.97 15.04 13.66 15.04 13.66C15.1 13.61 19.51 18.72 19.74 18.56C19.83 18.5 15.63 13.23 15.79 13.12C15.79 13.12 20.54 18.16 20.62 18.1C20.76 18 16.46 12.63 16.58 12.54C16.63 12.5 21.51 17.66 21.54 17.63C21.54 17.63 17.23 12.06 17.4 11.93C17.71 11.7 22.37 17.21 22.37 17.21C22.66 17 18.14 11.39 18.14 11.39C18.14 11.39 22.79 17.1 23.18 16.81C23.32 16.71 18.58 11.06 18.86 10.86C18.87 10.86 23.95 16.44 23.95 16.44C24.32 16.17 19.53 10.36 19.53 10.36C19.86 10.12 24.55 16.23 24.88 15.99C25.02 15.89 20.09 9.95 20.35 9.75C20.76 9.45 25.68 15.6 25.68 15.6C25.91 15.43 20.99 9.28 21.05 9.23C21.45 8.94 26.28 15.38 26.52 15.21C26.52 15.21 21.56 8.85 21.78 8.69C21.98 8.54 27.47 14.76 27.47 14.76C27.6 14.66 22.41 8.23 22.61 8.08C22.72 8 28.17 14.48 28.36 14.35C28.42 14.31 23.15 7.69 23.39 7.51C23.63 7.33 29.17 13.96 29.17 13.96C29.17 13.96 23.88 7.14 24.1 6.98C24.32 6.82 29.6 13.88 30.05 13.55C30.33 13.35 24.76 6.49 24.87 6.41C24.87 6.41 27.13 7.82 27.16 7.81C27.2 7.78 25.67 5.83 25.7 5.8" stroke="#E2BD63" stroke-width="0.85" stroke-linecap="round" stroke-linejoin="round"/>
<path d="M2.36001 35.68C2.04001 35.31 1.76001 34.92 1.51001 34.5C1.51001 34.5 4.99001 37.6 5.00001 37.59C5.06001 37.55 0.360007 31.51 0.500007 31.4C0.830007 31.16 6.33001 38.62 6.79001 38.29C6.79001 38.3 7.44499e-06 29.9 0.450007 29.57C0.640007 29.43 7.78001 38.88 8.11001 38.64C8.11001 38.64 0.310007 28.53 0.610007 28.32C1.13001 27.94 8.99001 39.34 9.59001 38.9C9.90001 38.68 0.370007 27.44 0.950007 27.01C1.39001 26.69 10.69 39.01 10.69 39.01C11.19 38.64 0.820007 26.44 1.30001 26.09C1.53001 25.93 11.86 39.09 11.86 39.09L1.73001 25.16C1.81001 25.1 12.47 39.59 13.09 39.14C13.09 39.14 1.44001 24.81 2.25001 24.22C3.06001 23.63 13.28 39.75 14.13 39.13C14.15 39.12 2.23001 23.81 2.73001 23.45C3.47001 22.91 14.25 39.9 15.34 39.11C15.53 38.97 8.70001 31.15 9.26001 30.74C9.64001 30.46 15.79 39.49 16.37 39.06C16.78 38.76 10.71 31.27 10.71 31.27C10.91 31.12 16.92 39.36 17.44 38.99C17.57 38.89 11.89 31.54 11.98 31.47C12.39 31.17 18.43 38.91 18.43 38.91L13.07 31.53C13.6 31.15 19.36 38.97 19.62 38.79C19.62 38.79 14.32 31.53 14.34 31.52C14.36 31.51 20.21 39.03 20.71 38.67C21.18 38.32 15.25 31.61 15.46 31.45C15.91 31.12 21.51 38.78 21.88 38.51C22.34 38.18 16.43 31.5 16.67 31.33C17.08 31.03 22.93 38.42 23.04 38.34C23.37 38.1 17.57 31.37 17.83 31.17C18.09 30.97 23.7 38.39 23.97 38.19C24.04 38.14 18.67 31.09 18.76 31.02C18.97 30.87 24.64 37.77 24.84 37.63C25.22 37.35 19.67 30.98 19.89 30.82C20.25 30.56 25.18 36.37 25.18 36.37C25.33 36.26 20.6 30.88 20.99 30.6C21.21 30.44 25.23 35.37 25.51 35.17C25.79 34.97 21.76 30.56 22.02 30.37C22.04 30.35 25.6 34.08 25.86 33.89C25.97 33.81 22.95 30.2 23.1 30.09L26.15 32.82C26.33 32.69 23.94 29.87 23.98 29.84C23.98 29.84 26.41 31.78 26.43 31.76C26.43 31.76 24.81 29.59 24.84 29.57C24.87 29.55 26.72 30.57 26.76 30.54C26.84 30.48 25.75 29.29 25.82 29.24C25.85 29.22 27.09 29.32 27.1 29.32C26.98 29.18 26.87 29.03 26.77 28.87" stroke="#E2BD63" stroke-width="0.85" stroke-linecap="round" stroke-linejoin="round"/>
<path d="M56.07 8.68L51.37 2.21C51.47 2.14 56.35 7.76 56.56 7.61C56.96 7.32 51.61 0.899997 51.66 0.869997C51.66 0.869997 56.66 6.91 56.98 6.68C57.07 6.62 52.47 0.579997 52.52 0.539997C52.74 0.379997 57.19 5.91 57.39 5.77C57.39 5.77 53.55 0.739997 53.67 0.649997C53.67 0.649997 57.75 4.86 57.82 4.81C58.08 4.62 54.64 0.949997 54.89 0.769997C55.14 0.589997 58.04 3.98 58.28 3.81C58.42 3.71 56.08 0.949997 56.16 0.889997C57.06 1.49 57.9 2.17 58.68 2.92C58.7 2.9 57.29 0.999997 57.29 0.999997C57.89 1.33 58.52 1.62 59.16 1.86C59.19 1.84 58.61 1.14 58.62 1.12" stroke="#E2BD63" stroke-width="0.85" stroke-linecap="round" stroke-linejoin="round"/>
<path d="M52.91 18.45C53.13 18.29 45.09 7.68998 45.09 7.68998C45.57 7.33998 52.85 17.72 53.33 17.37C53.33 17.37 45.99 8.19998 46.43 7.86998L53.71 16.41C53.95 16.24 47.63 8.03998 47.63 8.03998C47.76 7.93998 54.07 15.51 54.07 15.51C54.38 15.29 48.31 8.51998 48.76 8.19998C48.76 8.19998 54.89 15.32 55.06 15.19C55.5 14.87 49.51 7.54998 49.51 7.54998C50.02 7.16998 55.55 15.61 56.11 15.21C56.5 14.93 49.78 6.70998 49.88 6.63998C49.88 6.63998 57.32 15.3 57.41 15.23C57.41 15.23 50.05 5.67998 50.33 5.47998C50.58 5.29998 58.6 15.25 58.6 15.25C58.6 15.25 50.56 4.50998 50.72 4.39998C51.23 4.02998 59.49 15.58 59.91 15.27C60.62 14.76 51.12 3.16998 51.12 3.16998C51.12 3.16998 60.51 15.75 61.14 15.29C61.31 15.17 56.3 8.84998 56.4 8.76998C56.4 8.76998 61.73 15.62 62.16 15.3C62.35 15.16 57.45 8.80998 57.45 8.80998C57.56 8.72998 62.54 15.16 62.93 14.88C62.93 14.88 58.49 8.88998 58.55 8.84998C58.58 8.82998 63.07 13.53 63.13 13.48C63.16 13.46 59.67 8.94998 59.78 8.86998C60.02 8.68998 63.22 12.19 63.33 12.11C63.55 11.95 60.89 8.91998 60.97 8.85998C61.09 8.76998 63.36 10.89 63.52 10.77C63.11 10.08 62.64 9.41998 62.1 8.81998L63.72 9.34998C63.72 9.34998 63.25 8.73998 63.27 8.72998" stroke="#E2BD63" stroke-width="0.85" stroke-linecap="round" stroke-linejoin="round"/>
<path d="M40.85 13.27L40.8 13.2C41.27 13.36 41.75 13.49 42.23 13.59C42.26 13.57 41.19 12.16 41.19 12.16L43.47 13.84C43.58 13.76 41.44 11.29 41.56 11.21C41.56 11.21 44.85 14.14 44.91 14.1C44.95 14.07 41.96 10.11 41.99 10.08C42.31 9.85001 45.92 14.38 46.06 14.28C46.31 14.1 42.33 9.17001 42.34 9.16001C42.67 8.92001 47.35 14.44 47.35 14.44C47.63 14.24 42.74 8.10001 42.74 8.10001" stroke="#E2BD63" stroke-width="0.85" stroke-linecap="round" stroke-linejoin="round"/>
<path d="M51.63 32.38C52.32 31.88 40.15 17.38 40.53 17.1C40.79 16.91 51.14 30.22 51.14 30.22C51.74 29.79 41.51 17.89 41.95 17.57C42.68 17.04 50.94 29.02 51.17 28.85C51.78 28.41 43.08 18.09 43.26 17.96C43.9 17.5 50.82 27.84 51.35 27.46C51.95 27.02 44.28 18.59 44.69 18.29C45.2 17.92 51.26 26.48 51.58 26.25C51.9 26.02 45.76 18.53 45.9 18.43C46.29 18.14 52.35 25.9 52.35 25.9C52.7 25.65 45.79 18.08 46.37 17.66C46.82 17.33 53.06 25.99 53.43 25.73C53.73 25.51 46.69 16.6 46.76 16.55C47.33 16.14 53.72 26.03 54.36 25.57L47.1 15.58C47.1 15.58 54.91 25.73 55.39 25.38C55.39 25.38 46.85 14.94 47.48 14.49C47.67 14.35 56.31 25.28 56.46 25.17C56.89 24.85 42.88 8.01999 43.61 7.47999C43.98 7.20999 57.04 25.23 57.37 24.98C58.09 24.46 44.18 8.05999 44.77 7.62999C45.92 6.78999 58.05 24.98 58.33 24.78C58.36 24.76 53.63 18.46 53.7 18.41C53.7 18.41 59.16 24.76 59.44 24.55C59.44 24.55 54.87 18.3 54.89 18.29C55.02 18.19 60.19 24.5 60.39 24.36C60.59 24.22 55.55 18.46 55.91 18.19C55.91 18.19 60.99 24.45 61.41 24.15C61.81 23.86 56.67 18.32 57 18.08C57 18.08 62.38 24.01 62.5 23.91C62.5 23.91 58 18.08 58.17 17.95C58.32 17.84 63.01 23.42 63.25 23.24C63.55 23.02 59.08 18 59.32 17.83C59.32 17.83 63.03 21.66 63.23 21.52C63.31 21.46 60.3 17.83 60.46 17.71C60.55 17.64 63.21 19.93 63.21 19.93C63.21 19.93 61.49 17.61 61.52 17.6C61.59 17.55 63.16 18.2 63.2 18.17C63.05 17.92 62.88 17.68 62.69 17.46" stroke="#E2BD63" stroke-width="0.85" stroke-linecap="round" stroke-linejoin="round"/>
<path d="M37.66 24.62L37.59 24.53C38.03 24.63 38.46 24.76 38.89 24.92L37.77 23.37C37.91 23.27 40.36 25.37 40.47 25.3C40.71 25.13 38 21.9 38 21.9C38.18 21.77 41.85 25.64 41.85 25.64C42.01 25.52 38.2 20.62 38.2 20.62C38.52 20.39 43.03 26.19 43.3 25.99C43.53 25.82 38.19 19.42 38.41 19.26" stroke="#E2BD63" stroke-width="0.85" stroke-linecap="round" stroke-linejoin="round"/>
<path d="M45.61 38.05C45.27 37.65 44.96 37.23 44.69 36.78C44.69 36.78 48.22 39.95 48.23 39.94C48.29 39.9 43.55 33.81 43.7 33.7C44.02 33.47 49.46 40.81 49.91 40.48C49.91 40.48 43.14 32.11 43.59 31.78C43.78 31.64 50.8 40.91 51.13 40.68C51.13 40.68 43.39 30.65 43.69 30.43C44.2 30.06 51.92 41.21 52.5 40.79C52.81 40.57 43.34 29.39 43.92 28.97C44.35 28.65 53.53 40.8 53.53 40.8C54.03 40.43 43.67 28.24 44.15 27.89C44.37 27.73 54.61 40.77 54.61 40.77L44.45 26.79C44.53 26.73 55.11 41.12 55.73 40.67C55.73 40.67 37.45 18.18 38.72 17.26C39.99 16.34 55.35 41.47 56.66 40.51C56.69 40.49 38.58 17.25 39.35 16.69C40.45 15.89 56.09 41.43 57.7 40.26C57.85 40.15 52.43 33.94 52.87 33.61C53.17 33.4 58.11 40.32 58.57 39.98C58.89 39.75 54.15 33.89 54.15 33.89C54.31 33.78 59.06 39.92 59.45 39.64C59.55 39.57 55.23 33.96 55.29 33.92C55.59 33.7 60.22 39.26 60.22 39.26L56.28 33.83C56.65 33.56 60.93 38.86 61.11 38.73C61.11 38.73 57.37 33.61 57.38 33.6C57.39 33.59 61.55 38.42 61.88 38.18C62.21 37.94 58.18 33.4 58.33 33.29C58.62 33.08 62.44 37.67 62.68 37.5C62.98 37.29 59.15 32.97 59.31 32.86C59.55 32.68 63.35 36.8 63.41 36.75C63.61 36.6 60.05 32.47 60.21 32.35C60.37 32.23 63.81 36.2 63.96 36.09C64 36.06 60.85 31.93 60.91 31.89C61.03 31.81 64.48 35.28 64.59 35.2C64.81 35.04 61.61 31.36 61.74 31.27C61.95 31.11 65.17 34.25 65.17 34.25C65.26 34.18 62.27 30.78 62.52 30.6C62.66 30.5 65.47 33.39 65.65 33.26C65.85 33.11 63.04 30.06 63.23 29.92C63.24 29.91 65.93 32.25 66.11 32.12C66.2 32.06 63.83 29.23 63.95 29.15L66.44 31.11C66.6 30.99 64.48 28.5 64.52 28.47C64.52 28.47 66.69 30.06 66.72 30.04C66.72 30.04 65.04 27.79 65.07 27.77C65.1 27.75 66.93 28.74 66.97 28.71C67.09 28.63 65.58 27 65.68 26.93C65.71 26.91 67.13 27.26 67.14 27.26C66.81 26.88 66.52 26.48 66.26 26.05C66.3 26.02 67.18 25.68 67.19 25.67C67.2 25.66 66.79 25.15 66.8 25.14" stroke="#E2BD63" stroke-width="0.85" stroke-linecap="round" stroke-linejoin="round"/>
<path d="M97.91 8.30998C98.07 8.19998 92.24 0.499984 92.24 0.499984C92.58 0.259984 97.86 7.26998 98.19 7.02998C98.19 7.02998 93.18 0.769984 93.48 0.549984L98.44 5.89998C98.59 5.78998 94.59 0.599984 94.59 0.599984C94.67 0.539984 98.68 4.82998 98.68 4.82998C98.86 4.69998 95.38 0.829984 95.64 0.639984C95.64 0.639984 98.88 3.59998 98.97 3.53998C98.36 2.52998 97.67 1.57998 96.9 0.689984C97.05 0.579984 99.05 2.55998 99.21 2.44998C99.29 2.38998 97.94 0.749984 97.97 0.739984C97.97 0.739984 99.5 1.09998 99.51 1.08998C99.52 1.07998 99.28 0.799984 99.29 0.789984" stroke="#69B6B3" stroke-width="0.85" stroke-linecap="round" stroke-linejoin="round"/>
<path d="M75.37 15.25L75.32 15.18C75.7 15.2 76.09 15.2 76.47 15.18C76.5 15.16 75.5 13.85 75.5 13.85L77.49 15.14C77.6 15.06 75.56 12.71 75.67 12.63C75.67 12.63 78.65 15.13 78.7 15.09C78.73 15.06 75.84 11.21 75.87 11.19C76.16 10.98 79.56 15.15 79.7 15.05C79.95 14.87 76.03 10.01 76.04 10.01C76.35 9.78001 80.84 15.01 80.84 15.01C81.12 14.81 76.22 8.66001 76.22 8.66001C76.4 8.53001 81.87 15.1 82.04 14.97C82.47 14.66 75.93 7.58001 76.41 7.23001C76.76 6.98001 82.84 15.13 83.11 14.93C83.45 14.69 76.7 6.13001 76.71 6.13001C76.94 5.96001 83.92 15.17 84.31 14.89C84.87 14.48 77.97 6.60001 78.18 6.45001C78.21 6.43001 85.35 14.85 85.35 14.85C85.56 14.7 79.2 6.88001 79.44 6.71001C79.91 6.37001 86.01 15.06 86.35 14.81C86.35 14.81 80.19 7.26001 80.63 6.94001C80.97 6.69001 87.09 15 87.41 14.77C87.73 14.54 81.46 7.47001 81.89 7.17001C82.21 6.93001 88.27 14.89 88.49 14.73C88.5 14.72 82.72 7.69001 83.15 7.38001C83.48 7.14001 89.5 14.85 89.74 14.68C90.09 14.43 84.3 7.81001 84.59 7.60001" stroke="#69B6B3" stroke-width="0.85" stroke-linecap="round" stroke-linejoin="round"/>
<path d="M86.5 25.76C86.75 25.58 82.4 20.4 82.53 20.3C82.62 20.24 86.48 24.24 86.48 24.24C86.69 24.08 82.98 19.77 83.14 19.65C83.4 19.46 86.72 23.33 86.81 23.27C87.04 23.1 83.71 19.15 83.78 19.1C84.03 18.92 87.19 22.6 87.4 22.45C87.66 22.26 84.38 18.67 84.56 18.54C84.8 18.36 88.04 22.13 88.2 22.02C88.36 21.91 85.28 18.14 85.35 18.09C85.57 17.93 89.26 22.06 89.26 22.06C89.44 21.93 85.81 17.95 86.11 17.73" stroke="#69B6B3" stroke-width="0.85" stroke-linecap="round" stroke-linejoin="round"/>
<path d="M82.4 30.68C82.46 30.64 81.56 29.62 81.61 29.59C82.56 30.29 83.46 31.06 84.3 31.89L80.83 27.11C81.13 26.89 85.58 32.35 85.81 32.18C86.3 31.83 80.73 25.18 80.73 25.18C81.04 24.95 86.91 32.13 86.91 32.13C87.18 31.93 80.87 23.81 80.87 23.81C81.33 23.48 87.56 32.2 87.95 31.91C88.26 31.68 80.89 22.84 81.2 22.62" stroke="#69B6B3" stroke-width="0.85" stroke-linecap="round" stroke-linejoin="round"/>
<path d="M80.18 41.08V41.06L81.32 40.93C81.32 40.93 81.03 40.55 81.04 40.54C81.09 40.5 82.4 40.8 82.47 40.75C82.25 40.5 82.06 40.22 81.88 39.94C81.91 39.92 83.37 40.61 83.42 40.57C83.42 40.57 82.53 39.42 82.56 39.39C82.64 39.33 84.41 40.36 84.5 40.29C84.54 40.26 83.27 38.76 83.35 38.7C83.43 38.64 85.34 40.03 85.34 40.03C85.41 39.98 83.88 38.17 83.95 38.12C83.99 38.09 86.22 39.72 86.22 39.72L84.58 37.46C85.39 38.12 86.24 38.74 87.12 39.31C86.42 38.5 85.79 37.63 85.24 36.72C85.39 36.61 87.73 39.03 87.88 38.92C87.88 38.92 85.7 36.11 85.79 36.05C85.93 35.95 88.53 38.55 88.73 38.41C88.8 38.36 86.2 35.37 86.41 35.21C86.55 35.11 89.21 38.05 89.43 37.89C89.61 37.76 86.92 34.43 86.92 34.43C87.01 34.37 89.91 37.46 90.13 37.3C90.2 37.25 87.36 33.58 87.41 33.55C87.6 33.41 90.76 36.71 90.76 36.71L87.81 32.65C88.08 32.46 91.34 36.03 91.47 35.94C91.47 35.94 81.37 22.13 81.41 22.1C81.47 22.06 91.2 35.8 92.07 35.16C92.99 34.49 81.48 21.47 81.9 21.16C82.71 20.57 92.05 34.73 92.7 34.26C93.2 33.9 86.77 26.64 87.03 26.46C87.43 26.17 93.19 33.41 93.3 33.33C93.61 33.11 88.23 26.86 88.47 26.69C88.7 26.52 93.53 32.7 93.76 32.54C93.82 32.5 89.2 26.43 89.27 26.37C89.44 26.25 94.14 31.65 94.3 31.53C94.62 31.29 89.86 25.82 90.05 25.68C90.37 25.45 94.82 30.51 94.82 30.51C94.97 30.4 90.17 24.94 90.56 24.65C90.79 24.48 94.99 29.72 95.29 29.5C96.02 28.97 85.92 18 86.59 17.52C86.65 17.48 95.11 28.98 95.82 28.47C96.15 28.23 87.18 17.53 87.63 17.2L96.23 27.57C96.88 27.1 88.4 17.14 88.56 17.02C88.56 17.02 96.44 26.66 96.56 26.57C96.56 26.57 89.41 17.02 89.55 16.92C89.67 16.83 96.61 25.45 96.84 25.28C97.47 24.82 89.3 16.02 89.83 15.63C90.04 15.48 96.92 23.79 96.96 23.76C97.02 23.72 84.25 8.40999 85.27 7.66999C86.06 7.08999 96.76 22.07 96.87 21.99C97.17 21.78 86.27 8.06999 86.59 7.83999C86.67 7.77999 95.74 20.34 96.4 19.86C96.4 19.86 86.97 8.51999 87.75 7.95999C88.31 7.55999 95.22 16.6 95.22 16.6C95.77 16.2 88.61 8.32999 89 8.03999C89.37 7.76999 95.35 15.39 95.52 15.26C95.91 14.98 90.24 8.10999 90.29 8.06999C90.54 7.88999 95.45 14.34 95.79 14.09C95.86 14.04 90.57 7.78999 90.99 7.47999C90.99 7.47999 96.61 14.23 96.84 14.06C97.38 13.67 90.74 6.40999 91.09 6.14999C91.49 5.85999 97.38 14.42 97.91 14.04C98.37 13.71 91 4.93999 91.2 4.79999C91.2 4.79999 98.3 14.47 98.92 14.02C99.56 13.55 90.74 3.92999 91.3 3.52999C91.3 3.52999 99.53 14.29 99.92 14C100.31 13.71 91.06 2.50999 91.39 2.26999C91.97 1.84999 100.28 14.51 101 13.98C101.31 13.76 91.5 0.899994 91.5 0.899994C91.5 0.899994 101.8 14.19 102.13 13.96C102.13 13.96 97.87 8.48999 98.06 8.35999C98.13 8.30999 103.1 13.96 103.13 13.94C103.24 13.86 98.65 8.53999 99.01 8.27999C99.13 8.18999 103.97 14.15 104.3 13.92C104.49 13.78 100 8.28999 100.14 8.18999C100.38 8.00999 105.14 14.18 105.53 13.89C105.62 13.83 101.29 8.12999 101.32 8.09999L106.6 13.87C106.6 13.87 102.06 8.24999 102.36 8.02999C102.66 7.80999 107.01 12.65 107.01 12.65C107.01 12.65 103.32 8.14999 103.6 7.94999C103.7 7.87999 107.32 11.47 107.36 11.44C107.5 11.34 104.56 8.03999 104.77 7.87999C104.81 7.84999 107.7 10.22 107.7 10.22C107.07 9.45999 106.48 8.65999 105.96 7.81999C106.09 7.72999 107.86 9.25999 108 9.16999C108 9.16999 106.89 7.83999 106.98 7.76999C107.05 7.71999 108.31 7.94999 108.35 7.91999C108.35 7.91999 108.18 7.70999 108.19 7.69999" stroke="#69B6B3" stroke-width="0.85" stroke-linecap="round" stroke-linejoin="round"/>
<path d="M131.48 23.95L131.44 23.89C131.44 23.89 132.52 23.81 132.56 23.78C132.19 23.34 131.85 22.87 131.55 22.39L133.54 23.65C133.62 23.59 131.56 20.93 131.56 20.93C131.61 20.89 134.47 23.54 134.47 23.54C134.64 23.41 131.23 19.61 131.48 19.43C131.48 19.43 135.49 23.49 135.6 23.42C135.86 23.23 132.25 18.81 132.25 18.81C132.57 18.58 136.21 23.56 136.55 23.32C136.76 23.17 133.07 18.65 133.13 18.61C133.13 18.61 137.7 23.24 137.76 23.2C137.76 23.2 134.14 18.5 134.27 18.4C134.4 18.3 138.86 23.1 138.86 23.1C138.86 23.1 135.26 18.29 135.33 18.24C135.57 18.06 139.88 23.15 140.08 23C140.37 22.79 136.51 18.08 136.51 18.08C136.51 18.08 140.96 23.11 141.24 22.91C141.37 22.82 137.56 18.01 137.64 17.95C137.64 17.95 141.89 23.09 142.22 22.85C142.37 22.74 138.59 17.85 138.59 17.85C138.68 17.78 142.94 23.04 143.27 22.81C143.27 22.81 139.56 17.8 139.61 17.77C139.64 17.75 144.44 22.88 144.51 22.83C144.54 22.81 140.64 17.78 140.77 17.69C141.06 17.48 144.74 21.8 144.88 21.7C145.15 21.5 141.82 17.7 141.92 17.63C142.08 17.51 144.93 20.64 145.15 20.48C145.34 20.34 143.05 17.59 143.05 17.59L145.5 19.25C145.5 19.25 144.25 17.61 144.29 17.58C144.81 17.82 145.35 18.01 145.9 18.15C145.93 18.12 145.49 17.64 145.52 17.62" stroke="#69B6B3" stroke-width="0.85" stroke-linecap="round" stroke-linejoin="round"/>
<path d="M127 34.57L126.93 34.48C127.52 34.85 128.13 35.17 128.77 35.44C128.81 35.41 127.45 33.63 127.45 33.63L130.26 36.04C130.39 35.94 127.8 32.94 127.94 32.84C127.94 32.84 131.82 36.62 131.9 36.57C131.94 36.54 128.48 31.94 128.52 31.91C128.89 31.65 132.99 37.01 133.16 36.89C133.44 36.68 128.98 31.16 128.99 31.15C129.36 30.88 134.54 37.17 134.54 37.17C134.84 36.95 129.53 30.27 129.53 30.27C129.73 30.13 135.74 37.53 135.94 37.38C136.39 37.06 129.59 29.71 130.1 29.34C130.47 29.08 136.85 37.72 137.14 37.51C137.45 37.28 131.2 29.36 131.21 29.35C131.42 29.2 138.06 37.85 138.43 37.59C138.93 37.23 132.78 30.21 132.97 30.08C132.99 30.06 139.51 37.61 139.51 37.61C139.69 37.48 134.21 30.73 134.41 30.59C134.82 30.29 140.22 37.8 140.52 37.59C140.52 37.59 135.35 31.26 135.72 30.99C136.01 30.78 141.29 37.72 141.56 37.53C141.83 37.34 136.7 31.57 137.04 31.32C137.31 31.13 142.4 37.56 142.58 37.43C142.59 37.43 137.97 31.81 138.32 31.56C138.58 31.37 143.55 37.39 143.75 37.25C144.02 37.05 139.5 31.88 139.73 31.72C140.08 31.47 144.39 37.31 144.76 37.04C144.87 36.96 140.58 32.02 140.93 31.76C140.93 31.76 145.25 36.24 145.28 36.22C144.27 34.66 143.18 33.16 142.01 31.72C142.05 31.69 145.1 34.57 145.14 34.55C145.18 34.53 142.99 31.61 143 31.6C143.1 31.53 144.9 32.99 145 32.92C145.04 32.89 143.82 31.48 143.91 31.42L144.86 31.25C144.86 31.25 144.81 31.18 144.78 31.15" stroke="#69B6B3" stroke-width="0.85" stroke-linecap="round" stroke-linejoin="round"/>
<path d="M130.26 8.17C130.54 7.97 125.62 2.11 125.77 2C125.88 1.92 130.53 7.06 130.53 7.06C130.83 6.84 125.73 0.920003 125.95 0.760003C126.31 0.500003 130.72 6.16 130.84 6.07C131.15 5.84 126.65 0.500003 126.75 0.440003C127.08 0.200003 130.96 5.17 131.23 4.97C131.53 4.75 127.77 0.620003 127.97 0.480003C128.21 0.300003 131.45 4.07 131.61 3.96C131.77 3.85 129.05 0.560003 129.11 0.520003C130.12 1.29 131.07 2.13 131.96 3.04C132.06 2.96 129.98 0.680003 130.15 0.550003C130.26 0.470003 132.29 2.03 132.38 1.97C132.43 1.94 131.37 0.600003 131.38 0.590003C131.45 0.540003 132.68 1.11 132.76 1.05L132.45 0.620003" stroke="#69B6B3" stroke-width="0.85" stroke-linecap="round" stroke-linejoin="round"/>
<path d="M114.49 13.89L114.44 13.82C114.83 13.86 115.22 13.93 115.6 14.01L114.77 12.87C114.88 12.79 116.88 14.15 116.96 14.09C117.13 13.97 115.2 11.66 115.2 11.66C116.22 12.42 117.2 13.24 118.12 14.12C118.24 14.04 115.57 10.61 115.57 10.61C115.79 10.45 119.14 14.28 119.33 14.14C119.49 14.03 115.8 9.61 115.96 9.5C116.18 9.34 120.5 14.14 120.5 14.14C120.73 13.97 116.03 8.64 116.34 8.41" stroke="#69B6B3" stroke-width="0.85" stroke-linecap="round" stroke-linejoin="round"/>
<path d="M112.13 36.82L112.08 36.75L113.62 37.16C113.62 37.16 112.51 35.7 112.54 35.67C112.65 35.59 115 37.61 115.15 37.5C114.36 36.58 113.65 35.6 113.02 34.56C113.1 34.5 116.31 37.89 116.44 37.79C116.44 37.79 113.3 33.72 113.42 33.63C113.66 33.46 117.64 38.24 117.91 38.04C118.05 37.94 113.63 32.71 113.9 32.51C114.08 32.38 118.32 37.2 118.32 37.2C118.54 37.04 114.07 31.78 114.28 31.63C114.37 31.57 118.77 36.28 118.77 36.28L114.69 30.67C114.69 30.67 119.02 35.45 119.25 35.29C119.25 35.29 114.83 29.85 115.14 29.63C115.42 29.42 119.37 34.64 119.67 34.42C119.67 34.42 115.35 28.85 115.53 28.72C115.77 28.54 119.81 33.66 120.16 33.4C120.29 33.3 115.6 27.93 115.98 27.65C116.21 27.48 120.22 32.77 120.58 32.51C120.89 32.29 116.37 26.72 116.37 26.72C116.5 26.62 120.68 31.82 121.02 31.57C121.12 31.5 116.72 25.79 116.78 25.74C117.07 25.53 121.43 30.7 121.43 30.7L117.16 24.83C117.53 24.56 121.75 29.76 121.93 29.64C121.93 29.64 117.61 23.74 117.63 23.72C117.65 23.7 122.03 28.92 122.39 28.66C122.78 28.38 117.88 22.83 118.06 22.7C118.39 22.46 122.63 27.77 122.89 27.58C123.27 27.3 118.33 21.72 118.53 21.58C118.83 21.36 123.31 26.57 123.39 26.51C123.67 26.31 118.77 20.62 118.99 20.46C119.2 20.31 123.58 25.78 123.79 25.63C123.85 25.59 119.29 19.6 119.37 19.55C119.54 19.43 124.13 24.67 124.28 24.56C124.62 24.31 119.63 18.57 119.83 18.43C120.16 18.19 124.77 23.5 124.77 23.5C124.93 23.39 119.87 17.62 120.28 17.32C120.52 17.14 124.92 22.71 125.23 22.48C125.61 22.2 120.36 16.5 120.71 16.25C120.74 16.23 125.37 21.65 125.72 21.39C125.9 21.26 120.9 15.28 121.15 15.1L126.12 20.48C126.51 20.19 121.4 14.19 121.5 14.12C121.5 14.12 126.45 19.63 126.52 19.58C126.52 19.58 117.72 7.82001 117.89 7.70001C118.06 7.58001 126.69 18.75 126.98 18.54C127.68 18.04 118.67 8.33001 119.25 7.90001C119.5 7.72001 127.39 17.53 127.44 17.5C127.49 17.47 119.99 8.50001 120.58 8.06001C121.06 7.71001 127.82 16.51 127.89 16.46C128.06 16.33 121.68 8.30001 121.86 8.17001C121.91 8.14001 127.87 15.84 128.29 15.53C128.29 15.53 122.49 8.55001 122.97 8.20001C123.39 7.90001 128.74 14.5 128.74 14.5C129.18 14.18 123.52 7.97001 123.83 7.74001C124.14 7.51001 129.38 13.93 129.52 13.83C129.91 13.55 124.23 6.67001 124.29 6.63001C124.58 6.42001 130.2 14.06 130.6 13.77C130.68 13.71 124.16 5.99001 124.68 5.62001C124.69 5.62001 131.35 13.92 131.63 13.71C132.25 13.26 124.62 4.92001 125.03 4.62001C125.48 4.29001 132.08 14.07 132.67 13.64C133.17 13.28 125.14 3.73001 125.35 3.57001C125.35 3.57001 132.96 14.06 133.64 13.57C134.32 13.08 125.04 2.96001 125.63 2.54001C125.63 2.54001 134.19 13.79 134.6 13.49C134.78 13.36 130.55 8.24001 130.7 8.13001C130.98 7.93001 135.28 13.65 135.63 13.4C135.76 13.31 131.7 7.99001 131.7 7.99001C131.7 7.99001 136.55 13.4 136.69 13.29C136.69 13.29 132.54 7.96001 132.72 7.83001C132.79 7.78001 137.6 13.21 137.63 13.19C137.73 13.12 133.28 7.95001 133.63 7.69001C133.75 7.61001 138.42 13.29 138.73 13.07C138.92 12.93 134.56 7.61001 134.69 7.52001C134.89 7.38001 138.87 12.23 139.19 12C139.26 11.95 135.77 7.35001 135.8 7.33001L139.45 10.85C139.45 10.85 136.57 7.28001 136.76 7.15001C136.95 7.02001 139.77 9.51001 139.77 9.51001C139.07 8.70001 138.44 7.83001 137.88 6.91001C137.93 6.88001 140.05 8.26001 140.07 8.24001C140.13 8.20001 138.83 6.73001 138.92 6.66001C138.94 6.65001 140.37 6.96001 140.37 6.96001C140.21 6.77001 140.07 6.57001 139.94 6.36001" stroke="#69B6B3" stroke-width="0.85" stroke-linecap="round" stroke-linejoin="round"/>
</svg>
